<svg width="200" height="200" viewBox="0 0 200 200" fill="none" xmlns="http://www.w3.org/2000/svg">
<path fill-rule="evenodd" clip-rule="evenodd" d="M30.8984 75.0298L54.6816 125.029H134.409L141.706 112.596L149.274 125.029H169.003L152.247 99.894L169.003 75.0298H149.274L141.706 87.7301L134.409 75.0298H81.9782L65.2219 106.11L49.8169 75.0298H30.8984ZM94.2359 92.6015L100.528 81.2438H131.164L124.854 92.6015H94.2359ZM74.0312 105.726L80.3358 94.3688H124L117.69 105.726H74.0312ZM86.0211 107.492L79.7375 118.85H102.091L108.32 107.492H86.0211ZM102.782 118.85H102.201L108.43 107.492H109.011L102.782 118.85ZM102.892 118.85L109.121 107.492H109.67L103.442 118.85H102.892ZM103.552 118.85L109.78 107.492H110.276L104.047 118.85H103.552ZM104.268 118.85L110.496 107.492H111.268L105.04 118.85H104.268ZM105.26 118.85L111.488 107.492H112.259L106.03 118.85H105.26ZM106.251 118.85L112.479 107.492H113.139L106.911 118.85H106.251ZM113.579 107.494L113.576 107.492H114.461L108.232 118.85H107.352L113.579 107.494ZM114.901 107.494L114.898 107.492H115.783L109.554 118.85H108.673L114.901 107.494ZM116.223 107.494L116.22 107.492H116.987L110.759 118.85H109.995L116.223 107.494ZM117.869 107.493L117.867 107.492H118.726L112.498 118.85H111.641L117.869 107.493ZM119.608 107.493L119.607 107.492H120.469L114.24 118.85H113.38L119.608 107.493ZM121.35 107.493L121.349 107.492H122.379L116.187 118.85H115.122L121.35 107.493ZM117.948 118.85L124.14 107.492H125.516L119.207 118.85H117.948Z" fill="#A2D529"/>
</svg>
