<svg width="691" height="251" viewBox="0 0 691 251" fill="none" xmlns="http://www.w3.org/2000/svg">
<path fill-rule="evenodd" clip-rule="evenodd" d="M0.108398 0.583984L119.024 250.578H517.663L554.149 188.417L591.985 250.578H690.632L606.85 124.905L690.632 0.583984H591.985L554.149 64.0855L517.663 0.583984H255.507L171.726 155.985L94.7006 0.583984H0.108398ZM316.828 88.4903L348.286 31.7022H501.469L469.919 88.4903H316.828ZM215.803 154.115L247.326 97.3271H465.645L434.096 154.115H215.803ZM275.749 162.944L244.331 219.732H356.068L387.21 162.944H275.749ZM359.521 219.732H356.619L387.761 162.944H390.663L359.521 219.732ZM360.072 219.732L391.214 162.944H393.959L362.817 219.732H360.072ZM363.369 219.732L394.511 162.944H396.988L365.846 219.732H363.369ZM366.949 219.732L398.091 162.944H401.949L370.807 219.732H366.949ZM371.91 219.732L403.052 162.944H406.902L375.76 219.732H371.91ZM376.863 219.732L408.005 162.944H411.304L380.162 219.732H376.863ZM382.367 219.732L413.509 162.944H417.913L386.771 219.732H382.367ZM388.976 219.732L420.118 162.944H424.522L393.38 219.732H388.976ZM395.585 219.732L426.727 162.944H430.543L399.401 219.732H395.585ZM403.812 219.732L434.953 162.944H439.244L408.102 219.732H403.812ZM412.512 219.732L443.654 162.944H447.952L416.81 219.732H412.512ZM421.22 219.732L452.362 162.944H457.504L426.543 219.732H421.22ZM435.352 219.732L466.312 162.944H473.226L441.677 219.732H435.352Z" fill="#A2D529"/>
</svg>